<svg width="26" height="24" viewBox="0 0 26 24" fill="none" xmlns="http://www.w3.org/2000/svg">
    <path
        d="M24.3317 6C23.4975 6.35 22.5983 6.58 21.6667 6.69C22.62 6.16 23.3567 5.32 23.7033 4.31C22.8042 4.81 21.8075 5.16 20.7567 5.36C19.9008 4.5 18.6983 4 17.3333 4C14.7875 4 12.7075 5.92 12.7075 8.29C12.7075 8.63 12.7508 8.96 12.8267 9.27C8.97 9.09 5.53583 7.38 3.25 4.79C2.84917 5.42 2.62167 6.16 2.62167 6.94C2.62167 8.43 3.43417 9.75 4.69083 10.5C3.92167 10.5 3.20667 10.3 2.57834 10V10.03C2.57834 12.11 4.18167 13.85 6.305 14.24C5.62329 14.4122 4.9076 14.4362 4.21417 14.31C4.50841 15.1625 5.08467 15.9084 5.86194 16.4429C6.63921 16.9775 7.5784 17.2737 8.5475 17.29C6.90477 18.4904 4.8685 19.1393 2.77333 19.13C2.405 19.13 2.03667 19.11 1.66833 19.07C3.72667 20.29 6.175 21 8.79667 21C17.3333 21 22.0242 14.46 22.0242 8.79C22.0242 8.6 22.0242 8.42 22.0133 8.23C22.9233 7.63 23.7033 6.87 24.3317 6Z"
        fill="black" />
</svg>