<svg width="35" height="35" viewBox="0 0 29 29" fill="none" xmlns="http://www.w3.org/2000/svg">
    <path
        d="M14.5 4.83333C15.7819 4.83333 17.0113 5.34255 17.9177 6.24898C18.8241 7.1554 19.3333 8.38478 19.3333 9.66666C19.3333 10.9485 18.8241 12.1779 17.9177 13.0843C17.0113 13.9908 15.7819 14.5 14.5 14.5C13.2181 14.5 11.9887 13.9908 11.0823 13.0843C10.1759 12.1779 9.66667 10.9485 9.66667 9.66666C9.66667 8.38478 10.1759 7.1554 11.0823 6.24898C11.9887 5.34255 13.2181 4.83333 14.5 4.83333ZM14.5 16.9167C19.8408 16.9167 24.1667 19.0796 24.1667 21.75V24.1667H4.83334V21.75C4.83334 19.0796 9.15917 16.9167 14.5 16.9167Z"
        fill="white" />
</svg>