<svg width="25" height="24" viewBox="0 0 25 24" fill="none" xmlns="http://www.w3.org/2000/svg">
<path d="M13.5708 2.00099C14.331 1.99819 15.0911 2.00552 15.851 2.02299L16.0531 2.02999C16.2865 2.03799 16.5167 2.04799 16.7948 2.05999C17.9031 2.10999 18.6594 2.27799 19.3229 2.52499C20.0104 2.77899 20.5896 3.12299 21.1688 3.67899C21.6983 4.17859 22.1082 4.78293 22.3698 5.44999C22.6271 6.08699 22.8021 6.81399 22.8542 7.87799C22.8667 8.14399 22.8771 8.36599 22.8854 8.58999L22.8917 8.78399C22.9102 9.51318 22.9182 10.2426 22.9156 10.972L22.9167 11.718V13.028C22.9192 13.7577 22.9112 14.4875 22.8927 15.217L22.8865 15.411C22.8781 15.635 22.8677 15.856 22.8552 16.123C22.8031 17.187 22.626 17.913 22.3698 18.55C22.109 19.2177 21.6991 19.8226 21.1688 20.322C20.6479 20.8303 20.018 21.2237 19.3229 21.475C18.6594 21.722 17.9031 21.89 16.7948 21.94C16.5167 21.952 16.2865 21.962 16.0531 21.97L15.851 21.976C15.0911 21.9938 14.331 22.0014 13.5708 21.999L12.7937 22H11.4302C10.6701 22.0025 9.90992 21.9948 9.15 21.977L8.94792 21.971C8.70064 21.9624 8.45341 21.9524 8.20625 21.941C7.09792 21.891 6.34167 21.721 5.67708 21.475C4.98196 21.2243 4.35233 20.8308 3.83229 20.322C3.30213 19.8223 2.8919 19.2175 2.63021 18.55C2.37292 17.913 2.19792 17.187 2.14583 16.123C2.13423 15.8857 2.12382 15.6484 2.11458 15.411L2.10938 15.217C2.09017 14.4875 2.08149 13.7577 2.08333 13.028V10.972C2.08043 10.2426 2.08807 9.51318 2.10625 8.78399L2.11354 8.58999C2.12188 8.36599 2.13229 8.14399 2.14479 7.87799C2.19688 6.81299 2.37188 6.08799 2.62917 5.44999C2.89101 4.78261 3.30205 4.17843 3.83333 3.67999C4.35302 3.17074 4.98225 2.77656 5.67708 2.52499C6.34167 2.27799 7.09688 2.10999 8.20625 2.05999L8.94792 2.02999L9.15 2.02499C9.90957 2.00656 10.6694 1.99823 11.4292 1.99999L13.5708 2.00099ZM12.5 7.00099C11.8099 6.99162 11.1247 7.11401 10.4844 7.36105C9.84396 7.6081 9.26109 7.97486 8.76963 8.44004C8.27817 8.90522 7.88792 9.45952 7.62155 10.0707C7.35518 10.682 7.21801 11.3379 7.21801 12.0005C7.21801 12.663 7.35518 13.319 7.62155 13.9302C7.88792 14.5414 8.27817 15.0958 8.76963 15.5609C9.26109 16.0261 9.84396 16.3929 10.4844 16.6399C11.1247 16.887 11.8099 17.0094 12.5 17C13.8813 17 15.2061 16.4732 16.1828 15.5355C17.1596 14.5978 17.7083 13.3261 17.7083 12C17.7083 10.6739 17.1596 9.40213 16.1828 8.46445C15.2061 7.52677 13.8813 7.00099 12.5 7.00099ZM12.5 9.00099C12.9151 8.99364 13.3276 9.06578 13.7133 9.21319C14.0991 9.3606 14.4504 9.58033 14.7466 9.85953C15.0429 10.1387 15.2783 10.4718 15.439 10.8393C15.5997 11.2068 15.6825 11.6014 15.6826 12C15.6826 12.3986 15.6 12.7931 15.4394 13.1607C15.2788 13.5283 15.0436 13.8614 14.7474 14.1407C14.4512 14.42 14.1 14.6399 13.7143 14.7874C13.3286 14.9349 12.9162 15.0072 12.501 15C11.6722 15 10.8774 14.6839 10.2913 14.1213C9.70528 13.5587 9.37604 12.7956 9.37604 12C9.37604 11.2043 9.70528 10.4413 10.2913 9.87867C10.8774 9.31606 11.6722 8.99999 12.501 8.99999L12.5 9.00099ZM17.9688 5.50099C17.6327 5.5139 17.3149 5.65114 17.0819 5.88396C16.8489 6.11678 16.7187 6.42712 16.7187 6.74999C16.7187 7.07285 16.8489 7.38319 17.0819 7.61601C17.3149 7.84884 17.6327 7.98607 17.9688 7.99899C18.3141 7.99899 18.6453 7.86729 18.8895 7.63287C19.1337 7.39845 19.2708 7.08051 19.2708 6.74899C19.2708 6.41747 19.1337 6.09952 18.8895 5.8651C18.6453 5.63068 18.3141 5.49899 17.9688 5.49899V5.50099Z" fill="black"/>
</svg>
